<svg id="svg1" xmlns="http://www.w3.org/2000/svg" xmlns:xlink="http://www.w3.org/1999/xlink" viewBox="0 0 1893 1797.33"><defs><style>.cls-1{fill:url(#Sfumatura_senza_nome_6);}.cls-2{fill:url(#Sfumatura_senza_nome_7);}.cls-3{font-size:116px;fill:#5df;font-family:Montserrat-Medium, Montserrat;font-weight:500;letter-spacing:0.14em;}.cls-4{letter-spacing:0.13em;}.cls-5{letter-spacing:0.11em;}.cls-6{letter-spacing:0.14em;}.cls-7{letter-spacing:0.11em;}.cls-13,.cls-8{font-size:160px;font-family:Conthrax-SemiBold, Conthrax;font-weight:600;letter-spacing:0.01em;}.cls-9{letter-spacing:0.12em;}.cls-10{letter-spacing:0.14em;}.cls-11{letter-spacing:0.04em;}.cls-12{letter-spacing:0.14em;}.cls-13{fill:#fff;}</style><linearGradient id="Sfumatura_senza_nome_6" x1="936.47" y1="145.8" x2="936.47" y2="1252.33" gradientUnits="userSpaceOnUse"><stop offset="0" stop-color="#5df"/><stop offset="1" stop-color="#000cb5"/></linearGradient><linearGradient id="Sfumatura_senza_nome_7" x1="937.35" y1="1107.37" x2="937.35" y2="436.29" xlink:href="#Sfumatura_senza_nome_6"/></defs><path class="cls-1" d="M1471.12,1055.38a110.59,110.59,0,0,0-27,3.34L1022.37,321.56a111,111,0,1,0-176.91-2.74L428,1058.21a111,111,0,1,0,72.24,159.18l871.22-2a111,111,0,1,0,99.63-160ZM935,199.22a54,54,0,1,1-54,54A54,54,0,0,1,935,199.22ZM401.83,1220.08a54,54,0,1,1,54-54A54,54,0,0,1,401.83,1220.08Zm958.38-58.43-847.39,2a110.77,110.77,0,0,0-37.2-80.41L887.54,353.58a110.93,110.93,0,0,0,92,1.29l417.17,729.22A110.8,110.8,0,0,0,1360.21,1161.65Zm110.91,58.74a54,54,0,1,1,54-54A54.05,54.05,0,0,1,1471.12,1220.39Z"/><path class="cls-2" d="M769.74,701.34A61.25,61.25,0,0,0,710.9,803.25L532.61,1112.07H982.83a61.28,61.28,0,1,0-2-38.73H599.69l145.49-252A61.26,61.26,0,0,0,802.51,722l134.64-233.2L1160,870.16a61.26,61.26,0,0,0,59.62,102l55.14,94.34-81.21.39L937.74,617.41,711.16,1002.05h401l59,103.67,171-.82L1252,950.79a61.23,61.23,0,0,0-48.14-99.16,62.09,62.09,0,0,0-9.4.72L936.94,411.74Zm270.14,372.85a15.52,15.52,0,1,1-15.51,15.51A15.53,15.53,0,0,1,1039.88,1074.19ZM755.1,776.37a15.52,15.52,0,1,1,15.52-15.52A15.53,15.53,0,0,1,755.1,776.37Zm23.83,187L937.16,694.69l152.92,268.63Zm425-65.91a15.52,15.52,0,1,1-15.51,15.51A15.53,15.53,0,0,1,1203.88,897.41Z"/><text class="cls-3" transform="translate(275.68 1617.4)">IMM<tspan class="cls-4" x="307.63" y="0">U</tspan><tspan class="cls-5" x="414.58" y="0">T</tspan><tspan class="cls-6" x="495.32" y="0">ABLE </tspan><tspan class="cls-7" x="929.38" y="0">C</tspan><tspan x="1024.74" y="0">ORE</tspan></text><text class="cls-8" transform="translate(270.98 1483.08)">A<tspan class="cls-9" x="158.24" y="0">T</tspan><tspan class="cls-10" x="317.76" y="0">OMI</tspan><tspan class="cls-11" x="781.44" y="0">K</tspan><tspan class="cls-12" x="925.12" y="0">-OS</tspan></text><text class="cls-13" transform="translate(-1793.02 1483.08)">A<tspan class="cls-9" x="158.24" y="0">T</tspan><tspan class="cls-10" x="317.76" y="0">OMI</tspan><tspan class="cls-11" x="781.44" y="0">K</tspan><tspan class="cls-12" x="925.12" y="0">-OS</tspan></text></svg>